<svg xmlns="http://www.w3.org/2000/svg" width="16" height="17.192" viewBox="0 0 16 17.192">
  <path id="home" d="M137.5,41.639l-5.341-4.894a2.447,2.447,0,0,0-3.327,0l-5.337,4.894a3.084,3.084,0,0,0-1,2.268v7.532a1.846,1.846,0,0,0,1.846,1.846h3.077a.615.615,0,0,0,.615-.615V48.362a2.462,2.462,0,0,1,4.923,0V52.67a.615.615,0,0,0,.615.615h3.077a1.846,1.846,0,0,0,1.846-1.846V43.907A3.084,3.084,0,0,0,137.5,41.639Zm-.233,9.8a.615.615,0,0,1-.615.615h-2.462V48.362a3.692,3.692,0,1,0-7.385,0v3.692h-2.462a.615.615,0,0,1-.615-.615V43.907a1.85,1.85,0,0,1,.6-1.361l5.338-4.891a1.225,1.225,0,0,1,1.662,0l5.338,4.893a1.85,1.85,0,0,1,.6,1.359Z" transform="translate(-122.497 -36.093)" fill="#5b0697"/>
</svg>
